<mxfile host="app.diagrams.net" agent="Mozilla/5.0 (Windows NT 10.0; Win64; x64; rv:136.0) Gecko/20100101 Firefox/136.0" version="26.1.1" pages="2">
  <diagram name="Seq" id="TbOCaYY1tSFyOyQ3Ccbu">
    <mxGraphModel grid="1" page="1" gridSize="10" guides="1" tooltips="1" connect="1" arrows="1" fold="1" pageScale="1" pageWidth="827" pageHeight="1169" math="0" shadow="0">
      <root>
        <mxCell id="0" />
        <mxCell id="1" parent="0" />
        <mxCell id="IeQ7tMAcCfZkw90Px8X8-1" value="TesztelÅ‘" style="shape=umlActor;verticalLabelPosition=bottom;verticalAlign=top;html=1;" vertex="1" parent="1">
          <mxGeometry x="20" y="10" width="30" height="60" as="geometry" />
        </mxCell>
        <mxCell id="IeQ7tMAcCfZkw90Px8X8-4" value="A: FertileTecton" style="html=1;whiteSpace=wrap;" vertex="1" parent="1">
          <mxGeometry x="380" y="10" width="110" height="50" as="geometry" />
        </mxCell>
        <mxCell id="IeQ7tMAcCfZkw90Px8X8-5" value="I: Insect" style="html=1;whiteSpace=wrap;" vertex="1" parent="1">
          <mxGeometry x="210" y="10" width="110" height="50" as="geometry" />
        </mxCell>
        <mxCell id="IeQ7tMAcCfZkw90Px8X8-6" value="C: FertileTecton" style="html=1;whiteSpace=wrap;" vertex="1" parent="1">
          <mxGeometry x="690" y="10" width="110" height="50" as="geometry" />
        </mxCell>
        <mxCell id="IeQ7tMAcCfZkw90Px8X8-7" value="B: FertileTecton" style="html=1;whiteSpace=wrap;" vertex="1" parent="1">
          <mxGeometry x="540" y="10" width="110" height="50" as="geometry" />
        </mxCell>
        <mxCell id="IeQ7tMAcCfZkw90Px8X8-9" value="" style="endArrow=none;dashed=1;html=1;rounded=0;" edge="1" parent="1">
          <mxGeometry width="50" height="50" relative="1" as="geometry">
            <mxPoint x="35" y="760" as="sourcePoint" />
            <mxPoint x="35" y="100" as="targetPoint" />
          </mxGeometry>
        </mxCell>
        <mxCell id="IeQ7tMAcCfZkw90Px8X8-10" value="" style="endArrow=none;dashed=1;html=1;rounded=0;" edge="1" parent="1" source="IeQ7tMAcCfZkw90Px8X8-14">
          <mxGeometry width="50" height="50" relative="1" as="geometry">
            <mxPoint x="265" y="525" as="sourcePoint" />
            <mxPoint x="264.65999999999997" y="60" as="targetPoint" />
          </mxGeometry>
        </mxCell>
        <mxCell id="IeQ7tMAcCfZkw90Px8X8-11" value="" style="endArrow=none;dashed=1;html=1;rounded=0;" edge="1" parent="1">
          <mxGeometry width="50" height="50" relative="1" as="geometry">
            <mxPoint x="435" y="760" as="sourcePoint" />
            <mxPoint x="434.65999999999997" y="60" as="targetPoint" />
          </mxGeometry>
        </mxCell>
        <mxCell id="IeQ7tMAcCfZkw90Px8X8-12" value="" style="endArrow=none;dashed=1;html=1;rounded=0;" edge="1" parent="1">
          <mxGeometry width="50" height="50" relative="1" as="geometry">
            <mxPoint x="600" y="760" as="sourcePoint" />
            <mxPoint x="594.66" y="60" as="targetPoint" />
          </mxGeometry>
        </mxCell>
        <mxCell id="IeQ7tMAcCfZkw90Px8X8-13" value="" style="endArrow=none;dashed=1;html=1;rounded=0;" edge="1" parent="1" source="IeQ7tMAcCfZkw90Px8X8-28">
          <mxGeometry width="50" height="50" relative="1" as="geometry">
            <mxPoint x="745" y="525" as="sourcePoint" />
            <mxPoint x="744.66" y="60" as="targetPoint" />
          </mxGeometry>
        </mxCell>
        <mxCell id="IeQ7tMAcCfZkw90Px8X8-15" value="runAway()" style="html=1;verticalAlign=bottom;endArrow=block;curved=0;rounded=0;" edge="1" parent="1">
          <mxGeometry relative="1" as="geometry">
            <mxPoint x="40" y="130" as="sourcePoint" />
            <mxPoint x="260" y="130" as="targetPoint" />
          </mxGeometry>
        </mxCell>
        <mxCell id="IeQ7tMAcCfZkw90Px8X8-17" value="" style="endArrow=none;dashed=1;html=1;rounded=0;" edge="1" parent="1" target="IeQ7tMAcCfZkw90Px8X8-14">
          <mxGeometry width="50" height="50" relative="1" as="geometry">
            <mxPoint x="265" y="760" as="sourcePoint" />
            <mxPoint x="264.65999999999997" y="90" as="targetPoint" />
          </mxGeometry>
        </mxCell>
        <mxCell id="IeQ7tMAcCfZkw90Px8X8-14" value="" style="html=1;points=[[0,0,0,0,5],[0,1,0,0,-5],[1,0,0,0,5],[1,1,0,0,-5]];perimeter=orthogonalPerimeter;outlineConnect=0;targetShapes=umlLifeline;portConstraint=eastwest;newEdgeStyle={&quot;curved&quot;:0,&quot;rounded&quot;:0};" vertex="1" parent="1">
          <mxGeometry x="260" y="100" width="10" height="630" as="geometry" />
        </mxCell>
        <mxCell id="IeQ7tMAcCfZkw90Px8X8-18" value="" style="html=1;points=[[0,0,0,0,5],[0,1,0,0,-5],[1,0,0,0,5],[1,1,0,0,-5]];perimeter=orthogonalPerimeter;outlineConnect=0;targetShapes=umlLifeline;portConstraint=eastwest;newEdgeStyle={&quot;curved&quot;:0,&quot;rounded&quot;:0};" vertex="1" parent="1">
          <mxGeometry x="30" y="110" width="10" height="570" as="geometry" />
        </mxCell>
        <mxCell id="IeQ7tMAcCfZkw90Px8X8-19" value="" style="html=1;points=[[0,0,0,0,5],[0,1,0,0,-5],[1,0,0,0,5],[1,1,0,0,-5]];perimeter=orthogonalPerimeter;outlineConnect=0;targetShapes=umlLifeline;portConstraint=eastwest;newEdgeStyle={&quot;curved&quot;:0,&quot;rounded&quot;:0};" vertex="1" parent="1">
          <mxGeometry x="430" y="90" width="10" height="190" as="geometry" />
        </mxCell>
        <mxCell id="IeQ7tMAcCfZkw90Px8X8-20" value="hasMycelium()" style="html=1;verticalAlign=bottom;endArrow=block;curved=0;rounded=0;entryX=0;entryY=0;entryDx=0;entryDy=5;" edge="1" parent="1">
          <mxGeometry relative="1" as="geometry">
            <mxPoint x="270" y="210" as="sourcePoint" />
            <mxPoint x="430" y="210" as="targetPoint" />
          </mxGeometry>
        </mxCell>
        <mxCell id="IeQ7tMAcCfZkw90Px8X8-21" value="hasMycelium" style="html=1;verticalAlign=bottom;endArrow=open;dashed=1;endSize=8;curved=0;rounded=0;exitX=0;exitY=1;exitDx=0;exitDy=-5;" edge="1" parent="1" source="IeQ7tMAcCfZkw90Px8X8-19">
          <mxGeometry relative="1" as="geometry">
            <mxPoint x="270" y="274.9999999999999" as="targetPoint" />
          </mxGeometry>
        </mxCell>
        <mxCell id="IeQ7tMAcCfZkw90Px8X8-22" value="" style="html=1;points=[[0,0,0,0,5],[0,1,0,0,-5],[1,0,0,0,5],[1,1,0,0,-5]];perimeter=orthogonalPerimeter;outlineConnect=0;targetShapes=umlLifeline;portConstraint=eastwest;newEdgeStyle={&quot;curved&quot;:0,&quot;rounded&quot;:0};" vertex="1" parent="1">
          <mxGeometry x="590" y="300" width="10" height="100" as="geometry" />
        </mxCell>
        <mxCell id="IeQ7tMAcCfZkw90Px8X8-23" value="hasMycelium()" style="html=1;verticalAlign=bottom;endArrow=block;curved=0;rounded=0;entryX=0;entryY=0;entryDx=0;entryDy=5;" edge="1" parent="1">
          <mxGeometry relative="1" as="geometry">
            <mxPoint x="270" y="310" as="sourcePoint" />
            <mxPoint x="590" y="310" as="targetPoint" />
          </mxGeometry>
        </mxCell>
        <mxCell id="IeQ7tMAcCfZkw90Px8X8-24" value="hasMycelium" style="html=1;verticalAlign=bottom;endArrow=open;dashed=1;endSize=8;curved=0;rounded=0;exitX=0;exitY=1;exitDx=0;exitDy=-5;" edge="1" parent="1" source="IeQ7tMAcCfZkw90Px8X8-22">
          <mxGeometry relative="1" as="geometry">
            <mxPoint x="270" y="395" as="targetPoint" />
            <mxPoint as="offset" />
          </mxGeometry>
        </mxCell>
        <mxCell id="IeQ7tMAcCfZkw90Px8X8-26" value="hasMycelium" style="html=1;verticalAlign=bottom;endArrow=open;dashed=1;endSize=8;curved=0;rounded=0;exitX=0;exitY=1;exitDx=0;exitDy=-5;" edge="1" parent="1">
          <mxGeometry relative="1" as="geometry">
            <mxPoint x="269" y="540" as="targetPoint" />
            <mxPoint x="738.9999999999998" y="540" as="sourcePoint" />
            <mxPoint as="offset" />
          </mxGeometry>
        </mxCell>
        <mxCell id="IeQ7tMAcCfZkw90Px8X8-27" value="hasMycelium()" style="html=1;verticalAlign=bottom;endArrow=block;curved=0;rounded=0;" edge="1" parent="1">
          <mxGeometry relative="1" as="geometry">
            <mxPoint x="270" y="460" as="sourcePoint" />
            <mxPoint x="739.9999999999998" y="460" as="targetPoint" />
          </mxGeometry>
        </mxCell>
        <mxCell id="IeQ7tMAcCfZkw90Px8X8-29" value="" style="endArrow=none;dashed=1;html=1;rounded=0;" edge="1" parent="1" target="IeQ7tMAcCfZkw90Px8X8-28">
          <mxGeometry width="50" height="50" relative="1" as="geometry">
            <mxPoint x="745" y="760" as="sourcePoint" />
            <mxPoint x="744.66" y="90" as="targetPoint" />
          </mxGeometry>
        </mxCell>
        <mxCell id="IeQ7tMAcCfZkw90Px8X8-28" value="" style="html=1;points=[[0,0,0,0,5],[0,1,0,0,-5],[1,0,0,0,5],[1,1,0,0,-5]];perimeter=orthogonalPerimeter;outlineConnect=0;targetShapes=umlLifeline;portConstraint=eastwest;newEdgeStyle={&quot;curved&quot;:0,&quot;rounded&quot;:0};" vertex="1" parent="1">
          <mxGeometry x="740" y="450" width="10" height="100" as="geometry" />
        </mxCell>
        <mxCell id="IeQ7tMAcCfZkw90Px8X8-31" value="choosenTecton" style="html=1;verticalAlign=bottom;startArrow=none;startFill=0;endArrow=block;startSize=8;curved=0;rounded=0;endFill=1;" edge="1" parent="1" source="IeQ7tMAcCfZkw90Px8X8-18" target="IeQ7tMAcCfZkw90Px8X8-32">
          <mxGeometry width="60" relative="1" as="geometry">
            <mxPoint x="40" y="595" as="sourcePoint" />
            <mxPoint x="130" y="595" as="targetPoint" />
            <mxPoint as="offset" />
          </mxGeometry>
        </mxCell>
        <mxCell id="IeQ7tMAcCfZkw90Px8X8-32" value="" style="shape=waypoint;sketch=0;fillStyle=solid;size=6;pointerEvents=1;points=[];fillColor=none;resizable=0;rotatable=0;perimeter=centerPerimeter;snapToPoint=1;strokeWidth=2;" vertex="1" parent="1">
          <mxGeometry x="140" y="585" width="20" height="20" as="geometry" />
        </mxCell>
        <mxCell id="IeQ7tMAcCfZkw90Px8X8-34" value="setLocation(choosenTecton)" style="html=1;verticalAlign=bottom;startArrow=oval;startFill=1;endArrow=block;startSize=8;curved=0;rounded=0;" edge="1" parent="1">
          <mxGeometry width="60" relative="1" as="geometry">
            <mxPoint x="100" y="625" as="sourcePoint" />
            <mxPoint x="260" y="625" as="targetPoint" />
          </mxGeometry>
        </mxCell>
        <mxCell id="IeQ7tMAcCfZkw90Px8X8-35" value="&lt;div&gt;A felhasznÃ¡lÃ³ kivÃ¡laszt egyet, azok kÃ¶zÃ¼l, amelyeken van gombafonÃ¡l.&lt;/div&gt;&lt;div&gt;Ez vÃ©letlenszerÅ±en lesz kivÃ¡lasztva a vÃ©gsÅ‘ implementÃ¡ciÃ³ban.&lt;/div&gt;" style="shape=note;size=20;whiteSpace=wrap;html=1;" vertex="1" parent="1">
          <mxGeometry x="50" y="445" width="200" height="105" as="geometry" />
        </mxCell>
        <mxCell id="fCSv3jwBE6bSVXYujFbf-1" value="choosenTecton: FertileTecton" style="html=1;whiteSpace=wrap;" vertex="1" parent="1">
          <mxGeometry x="827" y="10" width="110" height="50" as="geometry" />
        </mxCell>
        <mxCell id="fCSv3jwBE6bSVXYujFbf-2" value="" style="endArrow=none;dashed=1;html=1;rounded=0;" edge="1" parent="1" source="fCSv3jwBE6bSVXYujFbf-3">
          <mxGeometry width="50" height="50" relative="1" as="geometry">
            <mxPoint x="880" y="600" as="sourcePoint" />
            <mxPoint x="881.5" y="60" as="targetPoint" />
          </mxGeometry>
        </mxCell>
        <mxCell id="fCSv3jwBE6bSVXYujFbf-4" value="setOccupant(I)" style="html=1;verticalAlign=bottom;endArrow=block;curved=0;rounded=0;entryX=0;entryY=0;entryDx=0;entryDy=5;" edge="1" parent="1" target="fCSv3jwBE6bSVXYujFbf-3">
          <mxGeometry relative="1" as="geometry">
            <mxPoint x="270" y="650" as="sourcePoint" />
          </mxGeometry>
        </mxCell>
        <mxCell id="fCSv3jwBE6bSVXYujFbf-5" value="" style="html=1;verticalAlign=bottom;endArrow=open;dashed=1;endSize=8;curved=0;rounded=0;exitX=0;exitY=1;exitDx=0;exitDy=-5;" edge="1" parent="1" source="fCSv3jwBE6bSVXYujFbf-3">
          <mxGeometry relative="1" as="geometry">
            <mxPoint x="270" y="720" as="targetPoint" />
          </mxGeometry>
        </mxCell>
        <mxCell id="fCSv3jwBE6bSVXYujFbf-6" value="" style="endArrow=none;dashed=1;html=1;rounded=0;" edge="1" parent="1" target="fCSv3jwBE6bSVXYujFbf-3">
          <mxGeometry width="50" height="50" relative="1" as="geometry">
            <mxPoint x="882" y="760" as="sourcePoint" />
            <mxPoint x="881.5" y="125" as="targetPoint" />
          </mxGeometry>
        </mxCell>
        <mxCell id="fCSv3jwBE6bSVXYujFbf-3" value="" style="html=1;points=[[0,0,0,0,5],[0,1,0,0,-5],[1,0,0,0,5],[1,1,0,0,-5]];perimeter=orthogonalPerimeter;outlineConnect=0;targetShapes=umlLifeline;portConstraint=eastwest;newEdgeStyle={&quot;curved&quot;:0,&quot;rounded&quot;:0};" vertex="1" parent="1">
          <mxGeometry x="877" y="645" width="10" height="80" as="geometry" />
        </mxCell>
        <mxCell id="j_IxaQuWqfv2xhzXBIBi-2" value="" style="endArrow=block;html=1;rounded=0;endFill=1;" edge="1" parent="1">
          <mxGeometry width="50" height="50" relative="1" as="geometry">
            <mxPoint x="270" y="160" as="sourcePoint" />
            <mxPoint x="430" y="160" as="targetPoint" />
          </mxGeometry>
        </mxCell>
        <mxCell id="j_IxaQuWqfv2xhzXBIBi-3" value="removeOccupant(I)" style="edgeLabel;html=1;align=center;verticalAlign=middle;resizable=0;points=[];" connectable="0" vertex="1" parent="j_IxaQuWqfv2xhzXBIBi-2">
          <mxGeometry x="0.2247" relative="1" as="geometry">
            <mxPoint x="-15" y="-10" as="offset" />
          </mxGeometry>
        </mxCell>
        <mxCell id="j_IxaQuWqfv2xhzXBIBi-4" value="" style="html=1;verticalAlign=bottom;endArrow=open;dashed=1;endSize=8;curved=0;rounded=0;" edge="1" parent="1">
          <mxGeometry relative="1" as="geometry">
            <mxPoint x="270" y="180" as="targetPoint" />
            <mxPoint as="offset" />
            <mxPoint x="429.9999999999998" y="180" as="sourcePoint" />
          </mxGeometry>
        </mxCell>
      </root>
    </mxGraphModel>
  </diagram>
  <diagram id="VUIXWt3xDf3C7_YTTuJs" name="Kom">
    <mxGraphModel grid="1" page="1" gridSize="10" guides="1" tooltips="1" connect="1" arrows="1" fold="1" pageScale="1" pageWidth="827" pageHeight="1169" math="0" shadow="0">
      <root>
        <mxCell id="0" />
        <mxCell id="1" parent="0" />
        <mxCell id="VAsVnKGdb1qmO67T-UzD-1" value="A: FertileTecton" style="html=1;whiteSpace=wrap;" vertex="1" parent="1">
          <mxGeometry x="400" y="40" width="110" height="50" as="geometry" />
        </mxCell>
        <mxCell id="VAsVnKGdb1qmO67T-UzD-2" value="&lt;div&gt;TesztelÅ‘&lt;/div&gt;" style="shape=umlActor;verticalLabelPosition=bottom;verticalAlign=top;html=1;" vertex="1" parent="1">
          <mxGeometry x="340" y="240" width="30" height="60" as="geometry" />
        </mxCell>
        <mxCell id="nsJz5velbdg8NP3HNg8H-2" value="C: FertileTecton" style="html=1;whiteSpace=wrap;" vertex="1" parent="1">
          <mxGeometry x="530" y="150" width="110" height="50" as="geometry" />
        </mxCell>
        <mxCell id="nsJz5velbdg8NP3HNg8H-3" value="MC: Mycelium" style="html=1;whiteSpace=wrap;" vertex="1" parent="1">
          <mxGeometry x="530" y="340" width="110" height="50" as="geometry" />
        </mxCell>
        <mxCell id="nsJz5velbdg8NP3HNg8H-6" value="B: FertileTecton" style="html=1;whiteSpace=wrap;" vertex="1" parent="1">
          <mxGeometry x="60" y="150" width="110" height="50" as="geometry" />
        </mxCell>
        <mxCell id="nsJz5velbdg8NP3HNg8H-7" value="MB: Mycelium" style="html=1;whiteSpace=wrap;" vertex="1" parent="1">
          <mxGeometry x="60" y="330" width="110" height="50" as="geometry" />
        </mxCell>
        <mxCell id="nsJz5velbdg8NP3HNg8H-8" value="" style="endArrow=none;html=1;rounded=0;" edge="1" parent="1" source="nsJz5velbdg8NP3HNg8H-7" target="nsJz5velbdg8NP3HNg8H-6">
          <mxGeometry width="50" height="50" relative="1" as="geometry">
            <mxPoint x="340" y="260" as="sourcePoint" />
            <mxPoint x="390" y="210" as="targetPoint" />
          </mxGeometry>
        </mxCell>
        <mxCell id="nsJz5velbdg8NP3HNg8H-10" value="" style="endArrow=none;html=1;rounded=0;" edge="1" parent="1" source="nsJz5velbdg8NP3HNg8H-2" target="nsJz5velbdg8NP3HNg8H-3">
          <mxGeometry width="50" height="50" relative="1" as="geometry">
            <mxPoint x="390" y="125" as="sourcePoint" />
            <mxPoint x="340" y="125" as="targetPoint" />
          </mxGeometry>
        </mxCell>
        <mxCell id="nsJz5velbdg8NP3HNg8H-11" value="" style="endArrow=none;html=1;rounded=0;" edge="1" parent="1" source="nsJz5velbdg8NP3HNg8H-3" target="VAsVnKGdb1qmO67T-UzD-2">
          <mxGeometry width="50" height="50" relative="1" as="geometry">
            <mxPoint x="595" y="210" as="sourcePoint" />
            <mxPoint x="595" y="250" as="targetPoint" />
          </mxGeometry>
        </mxCell>
        <mxCell id="nsJz5velbdg8NP3HNg8H-12" value="" style="endArrow=none;html=1;rounded=0;" edge="1" parent="1" source="nsJz5velbdg8NP3HNg8H-2" target="VAsVnKGdb1qmO67T-UzD-2">
          <mxGeometry width="50" height="50" relative="1" as="geometry">
            <mxPoint x="540" y="278" as="sourcePoint" />
            <mxPoint x="370" y="289" as="targetPoint" />
          </mxGeometry>
        </mxCell>
        <mxCell id="nsJz5velbdg8NP3HNg8H-14" value="" style="endArrow=none;html=1;rounded=0;" edge="1" parent="1" source="VAsVnKGdb1qmO67T-UzD-1" target="VAsVnKGdb1qmO67T-UzD-2">
          <mxGeometry width="50" height="50" relative="1" as="geometry">
            <mxPoint x="431" y="90" as="sourcePoint" />
            <mxPoint x="370" y="203" as="targetPoint" />
          </mxGeometry>
        </mxCell>
        <mxCell id="nsJz5velbdg8NP3HNg8H-15" value="" style="endArrow=none;html=1;rounded=0;" edge="1" parent="1" source="nsJz5velbdg8NP3HNg8H-6" target="VAsVnKGdb1qmO67T-UzD-2">
          <mxGeometry width="50" height="50" relative="1" as="geometry">
            <mxPoint x="296" y="150" as="sourcePoint" />
            <mxPoint x="342" y="260" as="targetPoint" />
          </mxGeometry>
        </mxCell>
        <mxCell id="nsJz5velbdg8NP3HNg8H-16" value="" style="endArrow=none;html=1;rounded=0;" edge="1" parent="1" source="nsJz5velbdg8NP3HNg8H-7" target="VAsVnKGdb1qmO67T-UzD-2">
          <mxGeometry width="50" height="50" relative="1" as="geometry">
            <mxPoint x="180" y="210" as="sourcePoint" />
            <mxPoint x="340" y="283" as="targetPoint" />
          </mxGeometry>
        </mxCell>
        <mxCell id="nsJz5velbdg8NP3HNg8H-17" value="" style="endArrow=classic;html=1;rounded=0;dashed=1;" edge="1" parent="1">
          <mxGeometry width="50" height="50" relative="1" as="geometry">
            <mxPoint x="380" y="240" as="sourcePoint" />
            <mxPoint x="420" y="170" as="targetPoint" />
          </mxGeometry>
        </mxCell>
        <mxCell id="nsJz5velbdg8NP3HNg8H-18" value="1. Â«CreateÂ»" style="edgeLabel;html=1;align=center;verticalAlign=middle;resizable=0;points=[];rotation=-50;" vertex="1" connectable="0" parent="nsJz5velbdg8NP3HNg8H-17">
          <mxGeometry x="-0.1182" y="2" relative="1" as="geometry">
            <mxPoint x="14" y="-2" as="offset" />
          </mxGeometry>
        </mxCell>
        <mxCell id="nsJz5velbdg8NP3HNg8H-19" value="" style="endArrow=classic;html=1;rounded=0;dashed=1;" edge="1" parent="1">
          <mxGeometry width="50" height="50" relative="1" as="geometry">
            <mxPoint x="330" y="250" as="sourcePoint" />
            <mxPoint x="260" y="220" as="targetPoint" />
          </mxGeometry>
        </mxCell>
        <mxCell id="nsJz5velbdg8NP3HNg8H-20" value="2. Â«CreateÂ»" style="edgeLabel;html=1;align=center;verticalAlign=middle;resizable=0;points=[];rotation=30;" vertex="1" connectable="0" parent="nsJz5velbdg8NP3HNg8H-19">
          <mxGeometry x="-0.1182" y="2" relative="1" as="geometry">
            <mxPoint x="7" y="-9" as="offset" />
          </mxGeometry>
        </mxCell>
        <mxCell id="nsJz5velbdg8NP3HNg8H-21" value="" style="endArrow=classic;html=1;rounded=0;dashed=1;" edge="1" parent="1">
          <mxGeometry width="50" height="50" relative="1" as="geometry">
            <mxPoint x="390" y="250" as="sourcePoint" />
            <mxPoint x="450" y="220" as="targetPoint" />
          </mxGeometry>
        </mxCell>
        <mxCell id="nsJz5velbdg8NP3HNg8H-22" value="3. Â«CreateÂ»" style="edgeLabel;html=1;align=center;verticalAlign=middle;resizable=0;points=[];rotation=334;" vertex="1" connectable="0" parent="nsJz5velbdg8NP3HNg8H-21">
          <mxGeometry x="-0.1182" y="2" relative="1" as="geometry">
            <mxPoint x="-1" y="-9" as="offset" />
          </mxGeometry>
        </mxCell>
        <mxCell id="nsJz5velbdg8NP3HNg8H-23" value="" style="endArrow=classic;html=1;rounded=0;dashed=1;" edge="1" parent="1">
          <mxGeometry width="50" height="50" relative="1" as="geometry">
            <mxPoint x="379" y="300" as="sourcePoint" />
            <mxPoint x="520" y="360" as="targetPoint" />
          </mxGeometry>
        </mxCell>
        <mxCell id="nsJz5velbdg8NP3HNg8H-24" value="&lt;div&gt;6. Â«CreateÂ»&lt;/div&gt;" style="edgeLabel;html=1;align=center;verticalAlign=middle;resizable=0;points=[];rotation=25;" vertex="1" connectable="0" parent="nsJz5velbdg8NP3HNg8H-23">
          <mxGeometry x="-0.1182" y="2" relative="1" as="geometry">
            <mxPoint x="-12" y="5" as="offset" />
          </mxGeometry>
        </mxCell>
        <mxCell id="nsJz5velbdg8NP3HNg8H-27" value="" style="endArrow=classic;html=1;rounded=0;dashed=1;" edge="1" parent="1">
          <mxGeometry width="50" height="50" relative="1" as="geometry">
            <mxPoint x="330" y="300" as="sourcePoint" />
            <mxPoint x="180" y="360" as="targetPoint" />
          </mxGeometry>
        </mxCell>
        <mxCell id="nsJz5velbdg8NP3HNg8H-28" value="&lt;div&gt;5. Â«CreateÂ»&lt;/div&gt;" style="edgeLabel;html=1;align=center;verticalAlign=middle;resizable=0;points=[];rotation=-25;" vertex="1" connectable="0" parent="nsJz5velbdg8NP3HNg8H-27">
          <mxGeometry x="-0.1182" y="2" relative="1" as="geometry">
            <mxPoint x="5" y="12" as="offset" />
          </mxGeometry>
        </mxCell>
        <mxCell id="nsJz5velbdg8NP3HNg8H-29" value="&lt;div&gt;I: insect&lt;/div&gt;" style="html=1;whiteSpace=wrap;" vertex="1" parent="1">
          <mxGeometry x="220" y="40" width="110" height="50" as="geometry" />
        </mxCell>
        <mxCell id="nsJz5velbdg8NP3HNg8H-30" value="" style="endArrow=none;html=1;rounded=0;" edge="1" parent="1" source="nsJz5velbdg8NP3HNg8H-29">
          <mxGeometry width="50" height="50" relative="1" as="geometry">
            <mxPoint x="540" y="352" as="sourcePoint" />
            <mxPoint x="350" y="230" as="targetPoint" />
          </mxGeometry>
        </mxCell>
        <mxCell id="nsJz5velbdg8NP3HNg8H-31" value="" style="endArrow=classic;html=1;rounded=0;dashed=1;" edge="1" parent="1">
          <mxGeometry width="50" height="50" relative="1" as="geometry">
            <mxPoint x="340" y="190" as="sourcePoint" />
            <mxPoint x="300" y="100" as="targetPoint" />
          </mxGeometry>
        </mxCell>
        <mxCell id="nsJz5velbdg8NP3HNg8H-32" value="&lt;div&gt;7. Â«CreateÂ»&lt;/div&gt;" style="edgeLabel;html=1;align=center;verticalAlign=middle;resizable=0;points=[];rotation=65;" vertex="1" connectable="0" parent="nsJz5velbdg8NP3HNg8H-31">
          <mxGeometry x="-0.1182" y="2" relative="1" as="geometry">
            <mxPoint x="9" y="-11" as="offset" />
          </mxGeometry>
        </mxCell>
        <mxCell id="nsJz5velbdg8NP3HNg8H-40" value="" style="endArrow=classic;html=1;rounded=0;" edge="1" parent="1">
          <mxGeometry width="50" height="50" relative="1" as="geometry">
            <mxPoint x="310" y="260" as="sourcePoint" />
            <mxPoint x="170" y="210" as="targetPoint" />
          </mxGeometry>
        </mxCell>
        <mxCell id="nsJz5velbdg8NP3HNg8H-41" value="8. AddMycelium(MB)" style="edgeLabel;html=1;align=center;verticalAlign=middle;resizable=0;points=[];rotation=15;fontSize=10;" vertex="1" connectable="0" parent="nsJz5velbdg8NP3HNg8H-40">
          <mxGeometry x="-0.1182" y="2" relative="1" as="geometry">
            <mxPoint x="-8" y="10" as="offset" />
          </mxGeometry>
        </mxCell>
        <mxCell id="nsJz5velbdg8NP3HNg8H-42" value="" style="endArrow=classic;html=1;rounded=0;" edge="1" parent="1">
          <mxGeometry width="50" height="50" relative="1" as="geometry">
            <mxPoint x="320" y="270" as="sourcePoint" />
            <mxPoint x="180" y="320" as="targetPoint" />
          </mxGeometry>
        </mxCell>
        <mxCell id="nsJz5velbdg8NP3HNg8H-43" value="9. SetLocation(B)" style="edgeLabel;html=1;align=center;verticalAlign=middle;resizable=0;points=[];rotation=-15;fontSize=10;" vertex="1" connectable="0" parent="nsJz5velbdg8NP3HNg8H-42">
          <mxGeometry x="-0.1182" y="2" relative="1" as="geometry">
            <mxPoint x="-29" y="-4" as="offset" />
          </mxGeometry>
        </mxCell>
        <mxCell id="0yv-2fmjYvhlYPWyxtwk-1" value="" style="endArrow=classic;html=1;rounded=0;" edge="1" parent="1">
          <mxGeometry width="50" height="50" relative="1" as="geometry">
            <mxPoint x="380" y="270" as="sourcePoint" />
            <mxPoint x="520" y="330" as="targetPoint" />
          </mxGeometry>
        </mxCell>
        <mxCell id="0yv-2fmjYvhlYPWyxtwk-2" value="11. SetLocation(C)" style="edgeLabel;html=1;align=center;verticalAlign=middle;resizable=0;points=[];rotation=23;fontSize=10;" vertex="1" connectable="0" parent="0yv-2fmjYvhlYPWyxtwk-1">
          <mxGeometry x="-0.1182" y="2" relative="1" as="geometry">
            <mxPoint x="15" y="-5" as="offset" />
          </mxGeometry>
        </mxCell>
        <mxCell id="0yv-2fmjYvhlYPWyxtwk-3" value="" style="endArrow=classic;html=1;rounded=0;" edge="1" parent="1">
          <mxGeometry width="50" height="50" relative="1" as="geometry">
            <mxPoint x="400" y="260" as="sourcePoint" />
            <mxPoint x="530" y="210" as="targetPoint" />
          </mxGeometry>
        </mxCell>
        <mxCell id="0yv-2fmjYvhlYPWyxtwk-4" value="10. AddMycelium(MC)" style="edgeLabel;html=1;align=center;verticalAlign=middle;resizable=0;points=[];rotation=341;fontSize=10;" vertex="1" connectable="0" parent="0yv-2fmjYvhlYPWyxtwk-3">
          <mxGeometry x="-0.1182" y="2" relative="1" as="geometry">
            <mxPoint x="19" y="4" as="offset" />
          </mxGeometry>
        </mxCell>
        <mxCell id="FJINl6FfrMkQ_Ohd0mbM-1" value="" style="endArrow=classic;html=1;rounded=0;" edge="1" parent="1">
          <mxGeometry width="50" height="50" relative="1" as="geometry">
            <mxPoint x="360" y="230" as="sourcePoint" />
            <mxPoint x="400" y="160" as="targetPoint" />
          </mxGeometry>
        </mxCell>
        <mxCell id="FJINl6FfrMkQ_Ohd0mbM-2" value="12. addOccupant(I)" style="edgeLabel;html=1;align=center;verticalAlign=middle;resizable=0;points=[];rotation=-65;fontSize=8;" connectable="0" vertex="1" parent="FJINl6FfrMkQ_Ohd0mbM-1">
          <mxGeometry x="-0.1182" y="2" relative="1" as="geometry">
            <mxPoint x="-6" y="-8" as="offset" />
          </mxGeometry>
        </mxCell>
        <mxCell id="KmIYVT0WO68sdJhmvYjd-1" value="" style="endArrow=classic;html=1;rounded=0;" edge="1" parent="1">
          <mxGeometry width="50" height="50" relative="1" as="geometry">
            <mxPoint x="340" y="230" as="sourcePoint" />
            <mxPoint x="270" y="100" as="targetPoint" />
          </mxGeometry>
        </mxCell>
        <mxCell id="KmIYVT0WO68sdJhmvYjd-2" value="13. setLocation(A)" style="edgeLabel;html=1;align=center;verticalAlign=middle;resizable=0;points=[];rotation=60;fontSize=10;" connectable="0" vertex="1" parent="KmIYVT0WO68sdJhmvYjd-1">
          <mxGeometry x="-0.1182" y="2" relative="1" as="geometry">
            <mxPoint x="-18" y="-10" as="offset" />
          </mxGeometry>
        </mxCell>
        <mxCell id="TXxn9DA_TRn7rLbgQCGx-1" value="" style="endArrow=none;html=1;rounded=0;" edge="1" parent="1" source="nsJz5velbdg8NP3HNg8H-29" target="VAsVnKGdb1qmO67T-UzD-1">
          <mxGeometry width="50" height="50" relative="1" as="geometry">
            <mxPoint x="296" y="100" as="sourcePoint" />
            <mxPoint x="360" y="240" as="targetPoint" />
          </mxGeometry>
        </mxCell>
        <mxCell id="uMfMvKfItBi5J2LSDHsg-1" value="" style="endArrow=none;html=1;rounded=0;" edge="1" parent="1" source="nsJz5velbdg8NP3HNg8H-2" target="VAsVnKGdb1qmO67T-UzD-1">
          <mxGeometry width="50" height="50" relative="1" as="geometry">
            <mxPoint x="300" y="240" as="sourcePoint" />
            <mxPoint x="350" y="190" as="targetPoint" />
          </mxGeometry>
        </mxCell>
        <mxCell id="uMfMvKfItBi5J2LSDHsg-2" value="" style="endArrow=none;html=1;rounded=0;edgeStyle=orthogonalEdgeStyle;" edge="1" parent="1" source="nsJz5velbdg8NP3HNg8H-6" target="VAsVnKGdb1qmO67T-UzD-1">
          <mxGeometry width="50" height="50" relative="1" as="geometry">
            <mxPoint x="300" y="240" as="sourcePoint" />
            <mxPoint x="350" y="190" as="targetPoint" />
            <Array as="points">
              <mxPoint x="115" y="20" />
              <mxPoint x="455" y="20" />
            </Array>
          </mxGeometry>
        </mxCell>
        <mxCell id="uMfMvKfItBi5J2LSDHsg-3" value="" style="endArrow=classic;html=1;rounded=0;" edge="1" parent="1">
          <mxGeometry width="50" height="50" relative="1" as="geometry">
            <mxPoint x="250" y="220" as="sourcePoint" />
            <mxPoint x="180" y="190" as="targetPoint" />
          </mxGeometry>
        </mxCell>
        <mxCell id="uMfMvKfItBi5J2LSDHsg-4" value="14. AddNeighbour(A)" style="edgeLabel;html=1;align=center;verticalAlign=middle;resizable=0;points=[];rotation=30;fontSize=10;" connectable="0" vertex="1" parent="uMfMvKfItBi5J2LSDHsg-3">
          <mxGeometry x="-0.1182" y="2" relative="1" as="geometry">
            <mxPoint x="2" y="-19" as="offset" />
          </mxGeometry>
        </mxCell>
        <mxCell id="uMfMvKfItBi5J2LSDHsg-5" value="" style="endArrow=classic;html=1;rounded=0;" edge="1" parent="1">
          <mxGeometry width="50" height="50" relative="1" as="geometry">
            <mxPoint x="460" y="210" as="sourcePoint" />
            <mxPoint x="520" y="180" as="targetPoint" />
          </mxGeometry>
        </mxCell>
        <mxCell id="uMfMvKfItBi5J2LSDHsg-6" value="15. AddNeighbour(A)" style="edgeLabel;html=1;align=center;verticalAlign=middle;resizable=0;points=[];rotation=-30;fontSize=9;" connectable="0" vertex="1" parent="uMfMvKfItBi5J2LSDHsg-5">
          <mxGeometry x="-0.1182" y="2" relative="1" as="geometry">
            <mxPoint x="-6" y="-5" as="offset" />
          </mxGeometry>
        </mxCell>
        <mxCell id="uMfMvKfItBi5J2LSDHsg-7" value="" style="endArrow=classic;html=1;rounded=0;" edge="1" parent="1">
          <mxGeometry width="50" height="50" relative="1" as="geometry">
            <mxPoint x="420" y="160" as="sourcePoint" />
            <mxPoint x="450" y="100" as="targetPoint" />
          </mxGeometry>
        </mxCell>
        <mxCell id="uMfMvKfItBi5J2LSDHsg-8" value="15. AddNeighbour(B)" style="edgeLabel;html=1;align=center;verticalAlign=middle;resizable=0;points=[];rotation=-60;fontSize=9;" connectable="0" vertex="1" parent="uMfMvKfItBi5J2LSDHsg-7">
          <mxGeometry x="-0.1182" y="2" relative="1" as="geometry">
            <mxPoint x="24" y="7" as="offset" />
          </mxGeometry>
        </mxCell>
        <mxCell id="uMfMvKfItBi5J2LSDHsg-9" value="" style="endArrow=classic;html=1;rounded=0;" edge="1" parent="1">
          <mxGeometry width="50" height="50" relative="1" as="geometry">
            <mxPoint x="400" y="150" as="sourcePoint" />
            <mxPoint x="430" y="90" as="targetPoint" />
          </mxGeometry>
        </mxCell>
        <mxCell id="uMfMvKfItBi5J2LSDHsg-10" value="15. AddNeighbour(C)" style="edgeLabel;html=1;align=center;verticalAlign=middle;resizable=0;points=[];rotation=-65;fontSize=7;" connectable="0" vertex="1" parent="uMfMvKfItBi5J2LSDHsg-9">
          <mxGeometry x="-0.1182" y="2" relative="1" as="geometry">
            <mxPoint x="-11" y="-3" as="offset" />
          </mxGeometry>
        </mxCell>
      </root>
    </mxGraphModel>
  </diagram>
</mxfile>
